<svg xmlns="http://www.w3.org/2000/svg" viewBox="0 0 740 233"><path fill="#E7E2F3" fill-rule="nonzero" d="M631-.2c3.28-.984 17.78908 3.34396 32.169059 9.399988l1.051799.446156C667.02416 10.84384 669.812 12.104 672.5 13.4c18.3 8.8 35.1 23.2 46.3 39.7 6.3 9.5 9.2 15.3 13.1 26.2 10.5 29.9 10.2 61.6-1 87.8-11.1 26.1-35.9 47.8-67.6 59.2-22.1 8-55.1 8.2-78.4.6-32-10.4-55.2-36.6-62.5-70.4-4.9-22.8-1.1-53.3 9.2-73.7 10.5-20.8 33.6-42.7 57-53.9 15.3-7.4 23.2-9.3 39.4-9.2 11.8 0 14.6.3 22.4 2.7 19.5 5.9 32.8 14.1 37 23 1.4 2.8 2.8 7.4 3.2 10.2.5 4.4.3 5.5-1.5 7.3-4.7 4.7-11.6 1.7-12.7-5.5-.9-6.1-4.6-10.2-13.2-14.7-16.1-8.5-36.2-11.3-51.7-7.3-26.1 6.8-54 29.2-66.9 53.6-4.7 8.9-8.4 22.1-9.5 34.3-4.3 45 18.8 80.4 59.7 91.5 2.353488.615116 4.263521 1.087182 6.12989 1.448717l.486151.091827c.404739.074469.809057.143849 1.217062.208472l.491638.075286c4.28076.633069 9.137983.766197 19.19187.77519L623.5 217.4c22.7.1 29.5-1.3 47.1-9.9 25.8-12.5 41.7-29.3 49.3-52.1 4.4-13.3 5.4-20.7 4.8-36.8-1-29.4-10.8-52.8-30.2-72.2-8.9-8.9-16.3-14.2-27.5-19.9-3.325-1.70625-9.7125-4.3121094-16.089233-6.703833l-.910557-.3400978C642.115104 16.5232639 634.470833 14 632.9 14c-.9 0-2.8-.9-4.3-2.1-4.4-3.5-3.1-10.4 2.4-12.1ZM65.3 10.4c23.8-7.7 55.2 3.5 67.2 24 4 6.8 6.5 16.4 7.2 27.8.6 9.4.5 9.7-2 12.2-3.1 3.1-6.6 3.3-9.7.8-2-1.6-2.4-3-2.7-10.3-.6-15.8-3.4-23.1-11.6-30.6-5.4-5-12.6-8.8-20.4-10.8C76 19 59.6 24.9 44.5 41.2c-17.8 19.1-29 47.6-30.2 76.8-1.9 44.3 15.6 76.6 44.8 83 7.9 1.8 24.8.8 32.9-1.8 9.5-3.1 22.3-10.8 30.1-18 7.4-6.8 12.3-14.5 16.9-26.3 1.4-3.8 3.5-7.8 4.5-8.9 3.9-4.3 11.5-1.1 11.5 4.9 0 2.788732-3.600476 12.11833-7.454507 19.900398l-.421284.842425c-.984594 1.94952-1.97773 3.779712-2.924209 5.357177-9.9 16.3-32.3 31.8-54.4 37.7-8.7 2.3-27.2 2.3-35.7-.1-7.9-2.2-18.1-7.2-24.1-12-10.1-8-20.5-24.3-24.9-39.1-7.7-26-6.8-60.1 2.4-86.4 12.1-34.6 32.9-58.6 57.8-66.7ZM580 141.3c4.5-2.3 8-.2 11.5 6.7 4.5 8.8 14.8 16.4 26.8 19.6 15.3 4.1 39.9-1.2 44.1-9.5 2.5-4.7 7.4-5.5 11.3-1.9 3.2 3 2.9 6.8-.9 11.9-8.2 10.6-30.9 17.5-49.3 15-20.7-2.9-36.6-13.2-44.7-28.7-2.7-5.2-3.1-6.7-2.3-9.1.6-1.5 2.2-3.3 3.5-4ZM147.3 72.2c6.6-3.2 9 .2 21.2 29.3 2.3 5.5 5.4 13.8 7 18.4l2.8 8.4 2.5-5.4c3.2-6.8 11.2-14.9 18.3-18.5 4.3-2.2 6.8-2.8 12.4-2.8 15.1-.2 27.5 10 38.4 31.3l5.9 11.6.6-4.5c.3-2.5.8-7.7 1.1-11.7.8-11.4 3.7-16.3 9.5-16.3 5.3 0 8.6 2.6 16.8 13.7 11.2 15.2 15.1 19.7 15.6 18.1.3-.7 1.1-6.8 2-13.5 1.6-13.3 2.8-16.4 8.9-23.1 5.2-5.5 10.6-8.2 17.2-8.2 10.8 0 18.5 6.3 31 25.2 4.9 7.3 9.6 13.4 11 14 1.8.8 3.9.7 8.3-.2l5.9-1.3-3.3-7.3c-4-8.5-4.1-9.3-1.3-12.8 3.8-4.8 9.7-3.1 12.8 3.8 3.4 7.8 10.1 18.5 13.7 22 1.9 1.8 6.2 4.8 9.7 6.7 5.2 2.7 7.5 3.3 14.2 3.7 6 .3 8.5 0 10-1.1 1.745455-1.357576 1.610285-1.680808-3.961599-7.261241L435 143.9c-4.6-4.5-11.1-9.2-22-15.6-16.896-9.944-22.02112-13.38304-25.59744-17.677018l-.24156-.294182c-.399-.4928-.781-.9988-1.161-1.5288-3.4-4.7-4-10.9-1.6-15.7 5.2-9.9 26.8-15.8 39.8-10.8 5.1 2 11.8 8.5 11.8 11.6 0 1-.9 3-2.1 4.5-2.8 3.6-7.1 3.5-11.6-.4-3-2.7-4-3-9.6-2.9-6.1.1-10.2 1.1-14.2 3.7-1.9 1.2-1.9 1.3 1.2 4 1.647692 1.453846 10.059124 6.853207 18.951822 12.191868L419.5 115.5c24.8 14.8 35.5 25.7 35.5 35.8 0 3.8-.6 5.3-3.2 8.3-11.7 13.3-39.8 9.4-57.2-8-5-5-6-5.6-6.8-4.2-1.6 2.9-8.8 5.8-14.7 5.9-9.9.3-16-4.7-26.6-21.3-11.8-18.6-17.6-22.3-25-15.9-4.1 3.7-5 6.4-7 22.7-2.1 16.9-5.6 23.2-12.8 23.2-6.7 0-13.9-6.2-24.4-21.1-2.6-3.7-5-6.8-5.3-6.9-.3 0-1.1 4.4-1.7 9.9-2 16.1-5.6 22.1-13.3 22.1-5.5 0-7.8-2.8-16.9-20.6-8.8-17.5-12.2-22.3-19-26.5-5.8-3.7-11.8-3.9-17.6-.4-7.9 4.6-11.5 11.3-13.5 25.1s-4.1 17.4-10.1 17.4c-5.3 0-6.6-2.4-14.8-27-4.4-12.9-11.1-30.6-15.1-39.3-6.5-14.4-7.1-16.1-6-18.6.6-1.6 2.1-3.3 3.3-3.9Zm454.4 13.6c1.6-1.8 6.8-2.4 8.9-1 3.6 2.4 4.8 14 1.7 17.4-2.2 2.4-7.7 2.4-10.3-.2-2.6-2.6-2.9-13.4-.3-16.2Zm44.8-2.8c3.8 0 5.9 2.1 7.4 7.5 1.6 5.8 1.4 8.2-.9 10.5-2.5 2.5-8.1 2.7-10.2.2-1.8-2-3.9-10.8-3.1-13.1.4-.9 1.3-2.4 2.1-3.4.9-.9 2.9-1.7 4.7-1.7ZM335.6 56.1c2.6-.2 18.8 12.4 20.4 15.8 2.5 5.5-4 11.8-9.2 8.9-5.4-2.9-16.8-12.5-17.8-14.9-1.4-3.3.2-7.6 3.2-8.9 1.3-.5 2.8-.9 3.4-.9Z"/></svg>