<svg xmlns="http://www.w3.org/2000/svg" viewBox="0 0 396.1 72.3"><style>.st0{fill:#655e55}</style><path d="M44.2.4v25.4H5.6V.4H0V57h5.6V30.8h38.6V57h5.5V.4zm22.4 0h5.6V57h-5.6zM88 .4V57h38.2v-4.9H93.5V.4zm47.3 0V57h38.2v-4.9h-32.6V.4zm74.5-.2L181.6 57h6.3l9.3-19h29.7l9.5 19h6.3L213.7.1h-3.9zm2 7.9l12.6 25h-24.9l12.3-25zm94.1 64.2c-5 0-9.9-2.1-14-6-5.6-5.2-10.3-12.9-14.5-19.7-4.6-7.5-8.6-14-12-14h-9.1V57h-5.6V.4H268c5.2 0 8.9.5 12.1 1.5 6.9 2.5 10.6 7.3 10.6 14.1 0 8.4-6.3 14.2-17 15.6 2.4 2 5 6.3 8.1 11.6 3.9 6.5 8.4 13.9 13.7 19 3.5 3.4 7.1 5 10.8 5 .8 0 3.5-.1 5.3-.7l.6-.2 1.3 4.9-.5.2c-1.8.6-4.4.9-7.1.9M266 27.6c4.4 0 7.5-.3 9.9-1.1 5.9-1.8 9-5.4 9-10.7 0-4-2.2-7.3-6.2-8.9-3.2-1.3-6.5-1.6-10.8-1.6h-11.6v22.3h9.7zM343 .4l-20.4 29-21.2-29h-6.5l24.7 34V57h5.6V34.5L349.4.4zm29.3 57.5c-9 0-16.7-2.3-21.3-6.4l-.4-.3 3.2-4.1.4.4c4 3.5 10.3 5.4 18 5.4 8.7 0 18.1-3.2 18.1-12 0-7.2-7.5-8.4-16.2-9.8-6.3-1-12.9-2.1-17-5.8-2.7-2.4-4.1-5.6-4.1-9.7C353 6.1 361.5 0 374.6 0c8.6 0 16.2 2.7 19.6 5.2l.4.3-2.6 4.2-.5-.3C389.2 7.8 383 5 375 5c-11.9 0-16.1 5.4-16.1 10.4 0 8.1 8.2 9.4 16.9 10.7 9.5 1.5 20.4 3.2 20.4 14.9-.1 10.3-9.4 16.9-23.9 16.9" class="st0"/></svg>