<?xml version="1.0" standalone="no"?>
<!DOCTYPE svg PUBLIC "-//W3C//DTD SVG 20010904//EN"
 "http://www.w3.org/TR/2001/REC-SVG-20010904/DTD/svg10.dtd">
<svg version="1.0" xmlns="http://www.w3.org/2000/svg"
 width="260.000000pt" height="260.000000pt" viewBox="0 0 260.000000 260.000000"
 preserveAspectRatio="xMidYMid meet">
<metadata>
Created by potrace 1.14, written by Peter Selinger 2001-2017
</metadata>
<g transform="translate(0.000000,260.000000) scale(0.100000,-0.100000)"
fill="#000000" stroke="none">
<path d="M1222 2219 c-140 -18 -301 -80 -420 -161 -84 -57 -244 -227 -315
-334 -98 -147 -237 -450 -237 -516 0 -32 63 -88 98 -88 50 0 84 39 121 137 19
48 55 131 81 183 195 390 464 589 795 590 94 0 172 -18 253 -59 267 -135 482
-544 547 -1040 l7 -53 -64 -63 c-151 -147 -435 -225 -773 -212 -172 6 -263 28
-400 96 -94 46 -208 124 -247 167 -16 18 -14 25 39 129 60 120 133 229 163
245 27 15 41 5 135 -90 109 -111 165 -139 238 -119 83 22 176 140 304 386 55
104 64 129 59 157 -9 47 -48 81 -96 81 -52 0 -73 -22 -127 -130 -47 -93 -129
-232 -162 -274 l-19 -25 -83 85 c-97 99 -158 133 -234 133 -64 0 -115 -27
-182 -96 -65 -68 -109 -138 -189 -302 -72 -147 -82 -183 -64 -227 26 -62 220
-218 360 -289 187 -94 321 -124 555 -124 318 0 567 59 750 179 78 51 184 159
213 218 22 45 23 51 12 144 -38 324 -154 654 -310 882 -70 102 -210 241 -293
290 -159 94 -322 125 -515 100z"/>
</g>
</svg>
