<svg enable-background="new 93.9 -0.7 479.7 481.3" height="481.3" viewBox="93.9 -.7 479.7 481.3" width="479.7" xmlns="http://www.w3.org/2000/svg"><path fill="#807F7D" d="m516.7 262c1.3-6.7 1.3-16 1.3-24s-1.3-16-1.3-24l52-40c5.3-4 6.7-9.3 2.7-16l-50.7-80c-2.7-5.3-9.3-6.7-14.7-5.3l-61.3 24c-12-9.3-26.7-18.7-41.3-24l-8-64c-1.3-4-6.7-9.3-13.3-9.3h-98.7c-6.7 0-10.7 5.3-12 9.3l-9.3 64c-14.7 5.3-29.3 14.7-41.3 24l-61.3-24c-5.3-2.7-12 0-14.7 5.3l-49.3 81.3c-2.7 5.3-1.3 12 2.7 16l53.3 40c0 8-1.3 16-1.3 24s1.3 16 1.3 24l-52 40c-5.3 4-6.7 9.3-2.7 16l49.2 82.7c2.7 5.3 9.3 6.7 14.7 5.3l61.3-24c12 9.3 26.7 17.3 41.3 24l9.3 64c1.3 5.3 6.7 9.3 12 9.3h98.7c6.7 0 10.7-5.3 12-9.3l9.3-64c14.7-6.7 28-14.7 41.3-24l61.3 24c6.7 2.7 12 0 14.7-5.3l49.3-82.7c2.7-5.3 1.3-12-2.7-16zm-182.7 60c-48 0-85.3-37.3-85.3-84s38.7-84 85.3-84 85.3 37.3 85.3 84-38.6 84-85.3 84z"/></svg>