<svg class="logo" enable-background="new 0 0 145.8 32.1" viewBox="0 0 145.8 32.1" xmlns="http://www.w3.org/2000/svg">
  <g class="logo--type">
    <path d="m42.8 8.9h6.1c3.4 0 5.2 1.4 5.2 4v.1c.1 1.6-1 3-2.5 3.3 1.9.2 3.3 1.8 3.1 3.7v.1c0 2.9-1.9 4.4-5.5 4.4h-6.4zm5.5 6.4c1.7 0 2.4-.6 2.4-2v-.1c0-1.3-.7-1.9-2.4-1.9h-2.1v4zm.3 6.7c1.7 0 2.5-.8 2.5-2.2v-.1c0-1.4-.8-2.2-2.7-2.2h-2.2v4.5z" />
    <path d="m55.6 21.3c0-2.7 2.4-3.7 5.9-3.7h1.3v-.5c0-1.4-.4-2.1-1.8-2.1-1 0-1.9.6-2 1.6v.1h-3c.2-2.7 2.3-3.9 5.1-3.9s4.8 1.1 4.8 4.2v7.4h-3.1v-1.4c-.8 1.1-2.1 1.7-3.4 1.6-2.1.1-3.8-.9-3.8-3.3zm7.2-.9v-1h-1.2c-1.8 0-2.9.4-2.9 1.6 0 .8.5 1.4 1.7 1.4 1.3.1 2.4-.7 2.4-2z" />
    <path d="m67.2 20.9h2.9c.1 1 .6 1.6 2 1.6 1.2 0 1.8-.5 1.8-1.2s-.7-1.1-2.3-1.3c-3-.5-4.2-1.3-4.2-3.5s2.2-3.6 4.5-3.6c2.5 0 4.4.9 4.7 3.5h-2.9c-.2-.9-.7-1.4-1.8-1.4s-1.6.5-1.6 1.2.5 1 2.2 1.2c2.8.4 4.4 1.1 4.4 3.6s-1.8 3.7-4.8 3.7-4.8-1.4-4.9-3.8z" />
    <path d="m77.8 18.9v-.2c-.2-3.1 2.3-5.8 5.4-5.9h.5c2.9 0 5.6 1.7 5.6 5.8v.9h-8.3c.1 1.9 1.1 3 2.8 3 1.5 0 2.2-.6 2.4-1.6h3c-.4 2.5-2.3 3.8-5.4 3.8-3.5 0-6-2.2-6-5.8zm8.3-1.4c-.1-1.7-1-2.5-2.5-2.5-1.4 0-2.6 1.1-2.6 2.5z" />
    <path d="m90 18.9v-.2c-.2-3.1 2.3-5.8 5.4-5.9h.5c2.6 0 5.1 1.1 5.4 4.4h-3c-.1-1.2-1.1-2-2.2-1.9 0 0 0 0-.1 0-1.6 0-2.7 1.2-2.7 3.4v.2c0 2.3 1 3.5 2.8 3.5 1.3.1 2.4-.9 2.4-2.2h2.8c-.2 2.7-2.1 4.6-5.4 4.6s-5.9-2.2-5.9-5.9z" />
    <path d="m102 21.3c0-2.7 2.4-3.7 5.9-3.7h1.3v-.5c0-1.4-.4-2.1-1.8-2.1-.9-.1-1.8.5-1.9 1.5v.1h-3c.2-2.7 2.3-3.9 5.1-3.9s4.8 1.1 4.8 4.2v7.4h-3.1v-1.3c-.8 1.1-2.1 1.7-3.4 1.6-2.1.1-3.9-.9-3.9-3.3zm7.2-.9v-1h-1.2c-1.8 0-2.9.4-2.9 1.6 0 .8.5 1.4 1.7 1.4 1.4.1 2.4-.7 2.4-2z" />
    <path d="m114.5 13h3.2v1.7c.7-1.3 2-2 3.5-2 1.4-.1 2.7.7 3.2 2 .9-1.3 2.3-2 3.8-2 2.1 0 3.7 1.3 3.7 4.4v7.3h-3.1v-6.9c0-1.5-.6-2.1-1.8-2.1-1.2-.1-2.1.9-2.2 2v.3 6.7h-3.1v-6.9c0-1.5-.7-2.1-1.8-2.1-1.2-.1-2.2.8-2.2 2v.3 6.7h-3.2z" />
    <path d="m134.1 13h3.2v1.8c.8-1.3 2.1-2.1 3.6-2.1 2.8 0 5 2.1 5 5.8v.2c0 3.8-2.1 5.9-5 5.9-1.5.1-2.9-.7-3.6-2v5.7h-3.2zm8.5 5.8v-.2c0-2.3-1.1-3.4-2.7-3.4s-2.8 1.1-2.8 3.4v.2c0 2.3 1.1 3.4 2.8 3.4s2.7-1.2 2.7-3.4z" />
  </g>
  <path class="logo--mark" d="m1.7 17.7c2.6-7.4 7.6-16 17.7-16s15.1 13.3 15.7 22.3c-2.7 4.6-9 6.3-15.7 6.3-5.5.1-10.7-2.2-14.4-6.3 0 0 3.2-8.5 6.1-8.6 2.2 0 4 4 5.7 4s5.3-7.7 5.3-7.7" fill="none" stroke="#000" stroke-linecap="round" stroke-linejoin="round" stroke-width="3.41" />
</svg>