<?xml version="1.0" encoding="UTF-8"?>
<svg width="16px" height="20px" viewBox="0 0 16 20" version="1.1" xmlns="http://www.w3.org/2000/svg" xmlns:xlink="http://www.w3.org/1999/xlink">
    <title>Pin</title>
    <g id="Page-1" stroke="none" stroke-width="1" fill="none" fill-rule="evenodd">
        <g id="Concept-(card-view)" transform="translate(-380.000000, -257.000000)" fill="#E55235" fill-rule="nonzero">
            <g id="Group-26" transform="translate(69.000000, 86.000000)">
                <g id="Group-2" transform="translate(93.000000, 161.000000)">
                    <g id="pin-red-left-5a3f4115e5164aaf3f36b02b12b90e2844032f2568cfb3da68edacd2295441dc" transform="translate(218.000000, 10.000000)">
                        <path d="M12.5067002,9.33568541 L9.11385718,3.50385951 C10.284662,2.21284462 10.6782518,0.971293901 10.3245192,0.362884581 C9.23342873,-1.50686113 -1.00986827,4.36453611 0.081222214,6.23922823 C0.405061858,6.79322696 1.69543827,7.09001199 3.41427945,6.74870921 L6.81708678,12.6003208 C5.59147829,13.7874609 5.14308494,14.9399761 5.67617481,15.8600097 C6.17937179,16.7305791 8.64553525,15.9292596 11.0419486,14.6431911 C11.0419486,14.6481375 11.0419486,14.6530839 11.0469308,14.6580303 L13.0198615,18.0512725 C13.3835583,18.6745211 14.5892382,20.1633927 14.9031136,19.9853217 C15.2169889,19.8072507 14.5194882,18.021594 14.1557913,17.3983455 L12.1828606,14.0051033 C12.1778784,14.0001568 12.1778784,13.9952104 12.1728963,13.990264 C14.4945774,12.5755887 16.4226688,10.8542355 15.9194718,9.98861248 C15.386382,9.06857888 14.1557913,8.88061503 12.5067002,9.33568541 Z" id="Pin" transform="translate(8.000000, 10.000000) scale(-1, 1) translate(-8.000000, -10.000000) "></path>
                    </g>
                </g>
            </g>
        </g>
    </g>
</svg>