<svg enable-background="new 0 0 20 20" viewBox="0 0 20 20" xmlns="http://www.w3.org/2000/svg"><path d="m10 1c-5 0-9 4-9 9s4 9 9 9 9-4 9-9-4-9-9-9zm0 16.2c-4 0-7.2-3.2-7.2-7.2s3.2-7.2 7.2-7.2 7.2 3.2 7.2 7.2-3.2 7.2-7.2 7.2zm4.1-6.6c.7 0 1.4-.6 1.4-1.4 0-.7-.6-1.3-1.4-1.3s-1.3.6-1.3 1.3c0 .8.6 1.4 1.3 1.4zm-8.1 0c.7 0 1.3-.6 1.3-1.4 0-.7-.6-1.3-1.3-1.3s-1.3.6-1.3 1.4c0 .7.6 1.3 1.3 1.3z" opacity=".9"/><path d="m7.4 12.4c.2.2 1.2 1.5 2.7 1.5 1.3 0 2.2-1.2 2.4-1.5" fill="none" opacity=".9" stroke="#000" stroke-miterlimit="10"/></svg>