<?xml version="1.0" standalone="no"?>
<!DOCTYPE svg PUBLIC "-//W3C//DTD SVG 20010904//EN"
 "http://www.w3.org/TR/2001/REC-SVG-20010904/DTD/svg10.dtd">
<svg version="1.0" xmlns="http://www.w3.org/2000/svg"
 width="260.000000pt" height="260.000000pt" viewBox="0 0 260.000000 260.000000"
 preserveAspectRatio="xMidYMid meet">
<metadata>
Created by potrace 1.11, written by Peter Selinger 2001-2013
</metadata>
<g transform="translate(0.000000,260.000000) scale(0.100000,-0.100000)"
fill="#000000" stroke="none">
<path d="M0 1300 l0 -1300 1300 0 1300 0 0 1300 0 1300 -1300 0 -1300 0 0
-1300z m1269 865 c31 -15 51 -59 51 -108 0 -81 -76 -283 -145 -387 -58 -88
-121 -144 -210 -186 -118 -58 -153 -38 -69 39 139 126 294 397 294 512 0 56
-8 56 -89 7 -83 -50 -157 -116 -229 -205 -199 -243 -272 -452 -273 -780 0
-112 4 -156 18 -197 10 -30 23 -55 29 -57 14 -5 197 199 282 315 98 131 128
181 167 278 45 109 77 165 123 216 84 93 182 91 182 -4 0 -59 -22 -93 -146
-219 l-114 -115 -15 -78 c-8 -43 -15 -80 -15 -84 0 -3 18 19 39 49 42 59 85
89 125 89 34 0 41 -28 32 -128 l-6 -77 30 55 c17 30 46 70 65 89 l34 34 -30
28 c-24 22 -29 34 -24 51 19 60 84 87 131 54 11 -8 40 -16 64 -18 69 -5 72
-26 24 -154 -5 -11 17 3 50 34 97 88 180 128 205 98 20 -23 5 -69 -45 -136
-24 -33 -40 -60 -35 -60 14 0 104 102 170 193 80 111 101 113 101 10 l0 -45
31 26 c40 34 59 21 59 -40 0 -40 -4 -47 -40 -72 -36 -25 -39 -31 -40 -74 0
-53 5 -51 -144 -82 -123 -25 -125 -8 -14 96 120 112 81 96 -53 -22 -94 -83
-119 -100 -146 -100 -43 0 -55 23 -42 79 5 24 14 53 20 65 6 11 -34 -25 -89
-82 -79 -82 -105 -103 -124 -100 -30 4 -36 51 -14 115 9 26 14 48 12 50 -6 7
-87 -89 -134 -159 -33 -50 -51 -68 -67 -68 -34 0 -49 46 -43 135 l5 74 -29
-41 c-16 -22 -45 -72 -64 -111 -84 -174 -85 -176 -114 -157 -12 7 -15 34 -15
132 l0 123 -74 -120 c-125 -202 -175 -260 -254 -295 -37 -16 -51 -18 -67 -10
-33 18 -77 86 -102 158 -21 60 -23 85 -22 232 0 142 4 183 28 290 65 293 169
495 350 676 83 82 116 108 185 142 70 35 93 42 143 42 32 0 72 -7 87 -15z
m635 -679 c-3 -75 -96 -165 -111 -107 -3 12 -13 21 -23 21 -9 0 -22 12 -29 27
-16 35 4 56 79 83 74 26 85 23 84 -24z m129 -490 c-1 -5 -106 -36 -233 -68
-292 -73 -412 -113 -561 -187 -155 -78 -254 -147 -344 -243 -102 -108 -135
-103 -135 20 0 73 24 112 95 160 74 49 217 116 335 157 284 98 853 207 843
161z"/>
<path d="M1261 1555 c-35 -38 -81 -119 -81 -143 0 -9 57 47 100 98 69 82 52
122 -19 45z"/>
<path d="M1958 1114 c-37 -19 -35 -26 2 -13 17 6 30 15 30 20 0 11 1 11 -32
-7z"/>
<path d="M1833 1453 c-7 -3 -13 -12 -13 -21 0 -15 2 -15 17 1 18 18 16 27 -4
20z"/>
</g>
</svg>
